<?xml version="1.0" encoding="UTF-8"?>
<svg id="Capa_1" xmlns="http://www.w3.org/2000/svg" version="1.1" viewBox="0 0 800 800">
  <!-- Generator: Adobe Illustrator 30.1.0, SVG Export Plug-In . SVG Version: 2.1.1 Build 136)  -->
  <defs>
    <style>
      .st0 {
        fill: #fff;
      }
    </style>
  </defs>
  <path class="st0" d="M401.35,768.9c-6,0-11.94-2.08-16.72-6.31-14.27-12.25-350.1-303.32-379.55-482.78-13.23-81.25-.73-145.05,37.17-189.56C74.7,52.04,124.54,31.04,182.58,31.04c5.02,0,10.1.12,15.12.49,3.55-.18,7.04-.24,10.53-.24,64.17,0,143.46,28.23,190.36,148.23,26.33-73.23,80.27-147.99,203.77-147.99,69.49,0,123.86,20.94,157.42,60.43,36.55,42.92,48.19,106.11,34.84,187.85-29.33,179.34-362.35,470.47-376.49,482.72-4.78,4.29-10.78,6.37-16.78,6.37Z"/>
</svg>