<?xml version="1.0" encoding="UTF-8"?>
<svg id="Layer_1" xmlns="http://www.w3.org/2000/svg" version="1.1" viewBox="0 0 800 800">
  <!-- Generator: Adobe Illustrator 30.1.0, SVG Export Plug-In . SVG Version: 2.1.1 Build 136)  -->
  <defs>
    <style>
      .st0 {
        fill: #f9f9f9;
      }
    </style>
  </defs>
  <path class="st0" d="M0,636.8c0,39.47,13.87,73.07,41.6,100.8,27.73,27.73,61.33,41.6,100.8,41.6h473.6c38.93,0,72.27-13.87,100-41.6s41.6-61.33,41.6-100.8v-204.8l-94.4,79.2v125.6c0,13.33-4.53,24.53-13.6,33.6s-20.27,13.87-33.6,14.4H142.4c-13.33,0-24.53-4.8-33.6-14.4-9.07-9.6-13.6-20.8-13.6-33.6V163.2c0-12.8,4.53-24,13.6-33.6,9.07-9.6,20.27-14.13,33.6-13.6h236.8V21.6h-236.8c-39.47,0-73.07,13.87-100.8,41.6C13.87,90.93,0,124.27,0,163.2v473.6h0ZM142.4,495.2c0,45.87,9.07,89.87,27.2,132,8.53-49.07,27.2-93.6,56-133.6,28.8-40,64.53-72.27,107.2-96.8,42.67-24.53,89.6-38.4,140.8-41.6v140l284-236.8L473.6,21.6v141.6c-44.8,0-87.73,8.8-128.8,26.4-41.07,17.6-76.27,41.33-105.6,71.2-29.33,29.87-53.07,65.07-71.2,105.6-18.13,40.53-26.67,83.47-25.6,128.8h0ZM800,552h0Z"/>
</svg>